<?xml version="1.0" encoding="utf-8"?>
<!-- Generator: Adobe Illustrator 23.0.3, SVG Export Plug-In . SVG Version: 6.00 Build 0)  -->
<svg version="1.1" id="Layer_1" xmlns="http://www.w3.org/2000/svg" xmlns:xlink="http://www.w3.org/1999/xlink" x="0px" y="0px"
	 viewBox="0 0 512 512" style="enable-background:new 0 0 512 512;" xml:space="preserve">
<style type="text/css">
	.st0{fill:url(#SVGID_1_);stroke:#000000;stroke-width:0.25;stroke-miterlimit:10;}
	.st1{fill:url(#SVGID_2_);stroke:#000000;stroke-width:0.25;stroke-miterlimit:10;}
	.st2{opacity:0.56;fill:url(#SVGID_3_);enable-background:new    ;}
	.st3{fill:#DDDDDD;}
	.st4{fill:url(#SVGID_4_);stroke:#000000;stroke-width:0.25;stroke-miterlimit:10;}
	.st5{fill:url(#SVGID_5_);stroke:#000000;stroke-width:0.25;stroke-miterlimit:10;}
	.st6{fill:url(#SVGID_6_);stroke:#000000;stroke-width:0.25;stroke-miterlimit:10;}
	.st7{fill:url(#SVGID_7_);stroke:#000000;stroke-width:0.25;stroke-miterlimit:10;}
	.st8{fill:url(#SVGID_8_);stroke:#000000;stroke-width:0.25;stroke-miterlimit:10;}
	.st9{opacity:0.4;fill:url(#SVGID_9_);enable-background:new    ;}
	.st10{opacity:0.4;fill:url(#SVGID_10_);enable-background:new    ;}
	.st11{fill:url(#SVGID_11_);stroke:#000000;stroke-width:0.25;stroke-miterlimit:10;}
	.st12{fill:url(#SVGID_12_);stroke:#000000;stroke-width:0.25;stroke-miterlimit:10;}
	.st13{fill:url(#SVGID_13_);}
	.st14{fill:url(#SVGID_14_);stroke:#000000;stroke-width:0.25;stroke-miterlimit:10;}
	.st15{fill:#F9F4E9;}
	.st16{fill:url(#SVGID_15_);}
	.st17{fill:url(#SVGID_16_);}
	.st18{fill:url(#SVGID_17_);}
	.st19{fill:#E79671;}
	.st20{fill:url(#SVGID_18_);}
	.st21{fill:#F6AD86;}
	.st22{fill:url(#SVGID_19_);}
	.st23{fill:url(#SVGID_20_);}
	.st24{fill:url(#SVGID_21_);}
	.st25{fill:url(#SVGID_22_);}
	.st26{fill:url(#SVGID_23_);}
	.st27{fill:url(#SVGID_24_);}
	.st28{fill:url(#SVGID_25_);}
	.st29{fill:url(#SVGID_26_);}
	.st30{fill:url(#SVGID_27_);}
	.st31{fill:url(#SVGID_28_);}
	.st32{fill:url(#SVGID_29_);}
	.st33{opacity:0.3;clip-path:url(#SVGID_31_);fill:url(#SVGID_32_);enable-background:new    ;}
	.st34{fill:url(#SVGID_33_);}
	.st35{fill:url(#SVGID_34_);stroke:#000000;stroke-width:0.25;stroke-miterlimit:10;}
</style>
<g>
	<g>
		<g>
			
				<linearGradient id="SVGID_1_" gradientUnits="userSpaceOnUse" x1="223.457" y1="225.9463" x2="246.6567" y2="200.0843" gradientTransform="matrix(1 0 0 -1 0 514)">
				<stop  offset="0" style="stop-color:#36277C"/>
				<stop  offset="1" style="stop-color:#47A9E0"/>
			</linearGradient>
			<path class="st0" d="M80.9,345.2c1.1,1.1,2.3,2.2,3.5,3.3c14.3,1.1,28.7,2.3,43,3.4c-3.6-3.1-8.4-7.8-13.3-14.1
				c-2.8-3.7-15.1-20.1-18.2-39.2c-3.5-21.1,14.7-36.1,14.7-55.7c0-40.1,32.5-72.5,72.5-72.5c28.5,0,53.3,16.5,65.1,40.5
				c14.3,1.1,28.7,2.3,43,3.4c-1.2-3-3.2-7.5-5.7-12.8c-10-20.7-13.3-20.5-13.3-26.5c0-14.1,17-22.4,14.3-32.3
				c-0.2-0.7-0.6-1.3-1.2-1.9c-56.4-56.4-148.1-56.4-204.5,0C24.4,197.2,24.5,288.8,80.9,345.2z"/>
			
				<linearGradient id="SVGID_2_" gradientUnits="userSpaceOnUse" x1="23.5761" y1="174.3331" x2="377.5233" y2="463.8437" gradientTransform="matrix(1 0 0 -1 0 514)">
				<stop  offset="0" style="stop-color:#36277C"/>
				<stop  offset="1" style="stop-color:#47A9E0"/>
			</linearGradient>
			<path class="st1" d="M123.9,348.6c1.1,1.1,2.3,2.2,3.5,3.3l49.2-52.6c-14.1-13.2-23-32.1-23-53c0-40.1,32.5-72.5,72.5-72.5
				c28.5,0,53.3,16.5,65.1,40.5l64.6-31.9c-6.8-13.8-15.9-26.8-27.4-38.3c-56.4-56.4-148.1-56.4-204.5,0
				C67.4,200.6,67.4,292.2,123.9,348.6z"/>
		</g>
		
			<linearGradient id="SVGID_3_" gradientUnits="userSpaceOnUse" x1="28.4456" y1="175.2497" x2="382.3942" y2="464.7614" gradientTransform="matrix(1 0 0 -1 0 514)">
			<stop  offset="0" style="stop-color:#E6224B"/>
			<stop  offset="1" style="stop-color:#FAB327"/>
		</linearGradient>
		<path class="st2" d="M128.8,347.7c1.1,1.1,2.3,2.2,3.5,3.3l49.2-52.6c-14.1-13.2-23-32.1-23-53c0-40.1,32.5-72.5,72.5-72.5
			c28.5,0,53.3,16.5,65.1,40.5l64.6-31.9c-6.8-13.8-15.9-26.8-27.4-38.3c-56.4-56.4-148.1-56.4-204.5,0
			C72.3,199.6,72.3,291.2,128.8,347.7z"/>
	</g>
	<g>
		<g>
			<path class="st3" d="M391.1,429.5c0,1.6-42.7,2.9-95.3,2.9s-95.3-1.3-95.3-2.9s42.7-2.9,95.3-2.9S391.1,427.9,391.1,429.5z"/>
			<g>
				<g>
					
						<linearGradient id="SVGID_4_" gradientUnits="userSpaceOnUse" x1="259.5102" y1="72.8114" x2="174.4746" y2="185.9579" gradientTransform="matrix(1 0 0 -1 0 514)">
						<stop  offset="0" style="stop-color:#E6224B"/>
						<stop  offset="1" style="stop-color:#FAB327"/>
					</linearGradient>
					<path class="st4" d="M237.2,418h-42.9c28.2,11.2,68.9,13.3,103.2,10.1l0,0C277.1,429.1,256.5,425.7,237.2,418z"/>
					
						<linearGradient id="SVGID_5_" gradientUnits="userSpaceOnUse" x1="325.2261" y1="175.046" x2="272.6415" y2="245.0139" gradientTransform="matrix(1 0 0 -1 0 514)">
						<stop  offset="0" style="stop-color:#E6224B"/>
						<stop  offset="1" style="stop-color:#FAB327"/>
					</linearGradient>
					<path class="st5" d="M361.7,299.1c-7.1,32.7-36.2,57.1-70.9,57.1c-7.5,0-14.7-1.1-21.4-3.2c24.8-7.7,43.9-28.2,49.5-53.9H361.7
						z"/>
					
						<linearGradient id="SVGID_6_" gradientUnits="userSpaceOnUse" x1="369.4879" y1="212.4276" x2="247.0155" y2="312.0974" gradientTransform="matrix(1 0 0 -1 0 514)">
						<stop  offset="0" style="stop-color:#293275"/>
						<stop  offset="1" style="stop-color:#61B55A"/>
					</linearGradient>
					<path class="st6" d="M355.8,251.5h-42.9c4.8,9.7,7.5,20.6,7.5,32.1c0,5.3-0.6,10.5-1.7,15.5h42.9c1.1-5,1.7-10.2,1.7-15.5
						C363.4,272.1,360.6,261.2,355.8,251.5z"/>
					
						<linearGradient id="SVGID_7_" gradientUnits="userSpaceOnUse" x1="334.6144" y1="-9.3347" x2="334.6144" y2="234.2185" gradientTransform="matrix(1 0 0 -1 0 514)">
						<stop  offset="0" style="stop-color:#E6224B"/>
						<stop  offset="1" style="stop-color:#FAB327"/>
					</linearGradient>
					<path class="st7" d="M237.2,418c52.1,20.7,113.7,10.1,155.8-32.1c20.4-20.4,33.4-45.2,39-71.4l-70.3-15.4
						c-7.1,32.7-36.2,57.1-70.9,57.1c-9.5,0-18.6-1.8-26.9-5.1L237.2,418z"/>
					
						<linearGradient id="SVGID_8_" gradientUnits="userSpaceOnUse" x1="395.6018" y1="26.0358" x2="395.6018" y2="281.1457" gradientTransform="matrix(1 0 0 -1 0 514)">
						<stop  offset="0" style="stop-color:#293275"/>
						<stop  offset="1" style="stop-color:#61B55A"/>
					</linearGradient>
					<path class="st8" d="M363.4,283.6c0,5.3-0.6,10.5-1.7,15.5l70.3,15.4c7-31.6,3.1-65.2-11.6-94.9l-64.6,31.9
						C360.7,261.2,363.4,272.1,363.4,283.6z"/>
					
						<linearGradient id="SVGID_9_" gradientUnits="userSpaceOnUse" x1="402.1626" y1="44.5482" x2="402.1626" y2="279.7423" gradientTransform="matrix(1 0 0 -1 0 514)">
						<stop  offset="0" style="stop-color:#E6224B"/>
						<stop  offset="1" style="stop-color:#FAB327"/>
					</linearGradient>
					<path class="st9" d="M372.4,281.1c0,4.9-0.5,9.7-1.5,14.3l64.8,14.2c6.4-29.2,2.9-60.1-10.7-87.4l-59.5,29.3
						C369.9,260.4,372.4,270.4,372.4,281.1z"/>
					
						<linearGradient id="SVGID_10_" gradientUnits="userSpaceOnUse" x1="339.5144" y1="-6.718" x2="339.5144" y2="236.8377" gradientTransform="matrix(1 0 0 -1 0 514)">
						<stop  offset="0" style="stop-color:#E6224B"/>
						<stop  offset="1" style="stop-color:#FAB327"/>
					</linearGradient>
					<path class="st10" d="M242.1,415.5c52.1,20.7,113.7,10.1,155.8-32.1c20.4-20.4,33.3-45.2,39-71.4l-70.3-15.4
						c-7.1,32.7-36.2,57.1-70.9,57.1c-9.5,0-18.6-1.8-26.9-5.2L242.1,415.5z"/>
				</g>
				
					<linearGradient id="SVGID_11_" gradientUnits="userSpaceOnUse" x1="366.5984" y1="252.4345" x2="367.1345" y2="372.2185" gradientTransform="matrix(1 0 0 -1 0 514)">
					<stop  offset="0" style="stop-color:#293275"/>
					<stop  offset="1" style="stop-color:#61B55A"/>
				</linearGradient>
				<polygon class="st11" points="420.4,219.7 382.3,238.5 355.8,251.5 313,251.5 377.6,219.7 				"/>
				
					<linearGradient id="SVGID_12_" gradientUnits="userSpaceOnUse" x1="241.3583" y1="112.7102" x2="164.6175" y2="214.8199" gradientTransform="matrix(1 0 0 -1 0 514)">
					<stop  offset="0" style="stop-color:#E6224B"/>
					<stop  offset="1" style="stop-color:#FAB327"/>
				</linearGradient>
				<polygon class="st12" points="263.9,351.5 237.2,418.4 194.3,418.4 221,351.5 				"/>
			</g>
		</g>
		<g>
			<path class="st3" d="M456.6,428.7c0,0.4-10.5,0.7-23.5,0.7s-23.5-0.3-23.5-0.7c0-0.4,10.5-0.7,23.5-0.7S456.6,428.3,456.6,428.7z
				"/>
			
				<linearGradient id="SVGID_13_" gradientUnits="userSpaceOnUse" x1="392.8036" y1="240.427" x2="423.8391" y2="150.6843" gradientTransform="matrix(1 0 0 -1 0 514)">
				<stop  offset="0" style="stop-color:#C9C8C8"/>
				<stop  offset="1" style="stop-color:#FFFFFF;stop-opacity:0"/>
			</linearGradient>
			<path class="st13" d="M426.5,275.9c0-1-0.6-1.7-1.4-1.7s-1.4,0.8-1.4,1.7l0.2,25.5h-31.3l-0.2-25.5c0-1-0.6-1.7-1.4-1.7
				c-0.7,0-1.4,0.8-1.4,1.7l0.8,86.2h2.7l-0.2-22.3h31.4l0.2,22.3h2.7L426.5,275.9z M392.9,336.3l-0.3-31.5H424l0.3,31.5H392.9z"/>
			
				<linearGradient id="SVGID_14_" gradientUnits="userSpaceOnUse" x1="385.4921" y1="233.5456" x2="499.8551" y2="2.7149" gradientTransform="matrix(1 0 0 -1 0 514)">
				<stop  offset="0" style="stop-color:#293275"/>
				<stop  offset="1" style="stop-color:#61B55A"/>
			</linearGradient>
			<path class="st14" d="M425.3,274.1c-0.8,0-1.3,0.6-1.1,1.4l3.2,19.9H396l-3.2-19.9c-0.1-0.8-0.8-1.4-1.6-1.4
				c-0.8,0-1.3,0.6-1.1,1.4l24.5,152c0.1,0.8,0.8,1.4,1.6,1.4c0.8,0,1.3-0.6,1.1-1.4l-3.2-19.9h31.4l3.1,19.9
				c0.1,0.8,0.8,1.4,1.6,1.4s1.3-0.6,1.1-1.4l-24.5-152C426.7,274.7,426,274.1,425.3,274.1z M400.8,325.5h31.4l4,24.6h-31.4
				L400.8,325.5z M405.2,352.8h31.4l4,24.6h-31.4L405.2,352.8z M427.8,298.1l4,24.6h-31.4l-4-24.6H427.8z M413.5,404.8l-4-24.6h31.4
				l4,24.6H413.5z"/>
		</g>
		<g>
			<path class="st3" d="M176.5,365.3c-0.3,4.6-89.8,5.3-90.1,0.9c-0.2-2.1,19.8-5.5,33.5-6.7C148.5,357.2,176.7,362.7,176.5,365.3z"
				/>
		</g>
	</g>
	<g>
		<g>
			<g>
				<g>
					<g>
						<polygon class="st15" points="164.5,364 165.4,364 165.3,363 164.4,363 						"/>
						<polygon class="st15" points="162.8,364 163.8,364 163.6,363 162.7,363 						"/>
						<polygon class="st15" points="161.2,364 162.1,364 162,363 161.1,363 						"/>
					</g>
				</g>
			</g>
		</g>
	</g>
	<g>
		<g>
			
				<linearGradient id="SVGID_15_" gradientUnits="userSpaceOnUse" x1="450.9661" y1="328.6483" x2="449.4946" y2="361.1544" gradientTransform="matrix(0.8488 0.5288 0.5288 -0.8488 -172.6719 242.9902)">
				<stop  offset="0" style="stop-color:#008261"/>
				<stop  offset="1" style="stop-color:#A6C715"/>
			</linearGradient>
			<path class="st16" d="M400.8,175.8c-1.2-5.3-11.5-11.8-15.1,0.5c-3,10.1-9.4,6.3-11.1,18c-1.1,7.3,12.5,19.4,20.7,12.4
				C405.3,198.3,403.3,186.2,400.8,175.8z"/>
			
				<linearGradient id="SVGID_16_" gradientUnits="userSpaceOnUse" x1="381.9165" y1="301.6045" x2="404.5735" y2="320.4192" gradientTransform="matrix(0.472 0.8816 0.8816 -0.472 -179.9887 -50.3985)">
				<stop  offset="0" style="stop-color:#E6224B"/>
				<stop  offset="1" style="stop-color:#9E1460"/>
			</linearGradient>
			<path class="st17" d="M375.5,194.7c1.3,0.2,4.1,0.5,10.8-0.4c4-0.5,5.7-1,6.8-1.3c2.1-0.5,2.1-2.4,1.2-3.1
				c-1.5-1.2-4-1.7-5.1-1.5c-6.4,1.3-11.1,2.4-12.8,2.5C374,191,374,194.4,375.5,194.7z"/>
			
				<linearGradient id="SVGID_17_" gradientUnits="userSpaceOnUse" x1="407.4652" y1="319.0178" x2="441.9498" y2="347.6542" gradientTransform="matrix(0.472 0.8816 0.8816 -0.472 -179.9887 -50.3985)">
				<stop  offset="0" style="stop-color:#E6224B"/>
				<stop  offset="1" style="stop-color:#9E1460"/>
			</linearGradient>
			<path class="st18" d="M364.4,185.6c0.2,1,1.1,1.1,3.4,3.3c3.3,3.2,4.3,3.9,7.3,5.6c1.9,1.1,4.3-1.2,2.3-3
				c-1.7-1.5-10.7-6.2-11.7-7.1C364.9,183.8,364.2,184.8,364.4,185.6z"/>
			<path class="st19" d="M394.4,181.4c0.1,0.2,1.1,4,1.7,7c0.3,1.5-0.5,3-1.5,3.3l0,0c-1,0.2-2.5-0.9-2.7-2.3c-0.3-2.6-1-5.2-1-5.3
				L394.4,181.4z"/>
			
				<linearGradient id="SVGID_18_" gradientUnits="userSpaceOnUse" x1="392.7552" y1="320.1823" x2="397.1554" y2="295.8121" gradientTransform="matrix(1 0 0 -1 0 514)">
				<stop  offset="0" style="stop-color:#E6224B"/>
				<stop  offset="1" style="stop-color:#9E1460"/>
			</linearGradient>
			<path class="st20" d="M400.3,206c-0.1-2.8-0.1-5.7,0.3-8.5c0.1-0.5,0.2-1,0.3-1.5c0.3-1.2,0.6-2.4,0.7-3.7
				c0.1-1.1,0.1-2.3-0.3-3.3c-1.4-3.9-7.9-1.8-10.7-1c-0.5,0.1-1,0.3-1.5,0.5c-0.9,0.4-1.8,1.2-2.3,2.1c-0.5,0.9-0.6,2-0.8,3.1
				c-0.8,4.2-3.1,4.7-0.5,9c3.8,6.2,1.5,11.1,2,14.5c0.9-0.2,16.8-3.2,16.8-3.2L400.3,206z"/>
			<path class="st21" d="M417,220.2c1.6-0.3,2.5-0.2,3-0.7c0.6-0.6-0.8-1.3-1.4-1.3s-2.6-0.1-3,0.5
				C415.3,219.3,415.9,220.4,417,220.2z"/>
			
				<linearGradient id="SVGID_19_" gradientUnits="userSpaceOnUse" x1="344.2989" y1="321.1618" x2="343.1601" y2="323.2384" gradientTransform="matrix(0.937 -0.3495 -0.3495 -0.937 168.0619 597.1867)">
				<stop  offset="0" style="stop-color:#E6224B"/>
				<stop  offset="1" style="stop-color:#9E1460"/>
			</linearGradient>
			<path class="st22" d="M408.2,204.8c-0.2-1.3-0.8-4.1-3.7-10.1c-1.7-3.7-2.7-5.1-3.3-6.1c-1.2-1.8-2.9-1.3-3.4-0.2
				c-0.7,1.8-0.4,4.3,0.2,5.3c3.2,5.7,5.4,10,6.3,11.4C405.7,207.5,408.3,206.4,408.2,204.8z"/>
			
				<linearGradient id="SVGID_20_" gradientUnits="userSpaceOnUse" x1="205.9272" y1="453.6943" x2="204.7883" y2="455.7711" gradientTransform="matrix(-1.0335 -0.2835 -0.1087 1.1318 683.2079 -214.9991)">
				<stop  offset="0" style="stop-color:#E6224B"/>
				<stop  offset="1" style="stop-color:#9E1460"/>
			</linearGradient>
			<path class="st23" d="M417.8,219c0.3-0.9-1.6-1.7-3.4-5.1c-2.6-4.9-3.2-6.3-5.8-9.4c-1.7-2-5.7-1.6-4.1,1.2
				c1.4,2.4,10,13,11.2,14C416,219.8,417.6,219.7,417.8,219z"/>
			<path class="st21" d="M397.5,179.8c-0.8,3.3-1,4-2.7,5.1s-3.8,1.5-5.4,1.2c-1.7-0.3-2.7-2.3-2.9-3.7c-0.2-1.5-0.1-5,0.9-8.6
				c0.5-1.8,3.1-3.7,5.5-3.4C395.3,170.9,399.5,171.8,397.5,179.8z"/>
			<path class="st21" d="M366.3,185.3c-0.1-0.6-1.2-2-1.5-2.4c-0.7-0.9-2.6-2.4-2.7-1.5c-0.1,1.2,0.2,2.6,0.9,3.2
				c0.5,0.4,1.6,1.6,2.2,1.7S366.5,186.2,366.3,185.3z"/>
			<path class="st21" d="M365.5,185.8c-0.3-0.2-1.1-0.5-1.4-0.6c-0.6-0.2-1.7-0.4-1.4,0c0.4,0.4,1.1,0.9,1.5,1
				c0.3,0.1,1.1,0.3,1.3,0.2C365.8,186.3,365.9,186.1,365.5,185.8z"/>
			
				<linearGradient id="SVGID_21_" gradientUnits="userSpaceOnUse" x1="408.2204" y1="475.6083" x2="391.2048" y2="454.5731" gradientTransform="matrix(-0.9821 0.1886 -0.1886 -0.9821 641.5918 447.3082)">
				<stop  offset="0" style="stop-color:#36277C"/>
				<stop  offset="1" style="stop-color:#47A9E0"/>
			</linearGradient>
			<path class="st24" d="M361.1,231.9c-0.1,0.4-0.9,1.4-2,2.3c-1.2,0.8-3.8,1.6-2.2,1.8c1.6,0.2,3.3-0.4,4.1-0.7
				c0.9-0.3,1.7-0.5,2.7-0.7c1.4-0.3,1.4-0.4,0.9-1.9C363.9,230.5,361.5,230.5,361.1,231.9z"/>
			
				<linearGradient id="SVGID_22_" gradientUnits="userSpaceOnUse" x1="548.2023" y1="469.2726" x2="531.1862" y2="448.2368" gradientTransform="matrix(-0.637 0.7709 -0.7709 -0.637 804.8848 140.5124)">
				<stop  offset="0" style="stop-color:#36277C"/>
				<stop  offset="1" style="stop-color:#47A9E0"/>
			</linearGradient>
			<path class="st25" d="M381.7,265.2c0.2,0.4,0.2,1.7-0.1,3c-0.4,1.4-1.9,3.6-0.6,2.8c1.4-0.9,2.3-2.4,2.7-3.2
				c0.5-0.8,1-1.5,1.7-2.3c0.9-1.1,0.8-1.1-0.5-2C383.1,262.4,381.2,264,381.7,265.2z"/>
			
				<linearGradient id="SVGID_23_" gradientUnits="userSpaceOnUse" x1="3.7123" y1="176.4392" x2="93.1525" y2="247.4652" gradientTransform="matrix(-0.9888 -0.1495 0.1495 -0.9888 504.5929 492.3128)">
				<stop  offset="0" style="stop-color:#008261"/>
				<stop  offset="1" style="stop-color:#A6C715"/>
			</linearGradient>
			<path class="st26" d="M388.2,172.2c-1.6,2,7.2,7.5,9.4,7.5c2.2,0,2.3-4.1,1-6.4C397.3,171,392.1,167.4,388.2,172.2z"/>
			
				<linearGradient id="SVGID_24_" gradientUnits="userSpaceOnUse" x1="5.377" y1="174.3411" x2="94.8182" y2="245.3679" gradientTransform="matrix(-0.9888 -0.1495 0.1495 -0.9888 504.5929 492.3128)">
				<stop  offset="0" style="stop-color:#008261"/>
				<stop  offset="1" style="stop-color:#A6C715"/>
			</linearGradient>
			<path class="st27" d="M391.8,172.2c-0.6,1.8-4,1.8-4.8,3.2c-0.5,0.9-0.2-2.2,0.8-3.4C388.8,170.7,393.1,168.5,391.8,172.2z"/>
			
				<linearGradient id="SVGID_25_" gradientUnits="userSpaceOnUse" x1="360.6421" y1="289.2523" x2="367.9666" y2="297.0235" gradientTransform="matrix(1 0 0 -1 0 514)">
				<stop  offset="0" style="stop-color:#222652"/>
				<stop  offset="1" style="stop-color:#3461AB"/>
			</linearGradient>
			<path class="st28" d="M363.8,209.6c0.7-5.3,5.6-4.4,6.2,0.2c0.8,7.1-3.5,15.4-5.1,23.7c-0.6-1.6-1-2-1.7-2.2
				c-1.1-0.3-2,0.5-2,0.5C363.1,220.8,363.1,215.3,363.8,209.6z"/>
			
				<linearGradient id="SVGID_26_" gradientUnits="userSpaceOnUse" x1="366.539" y1="267.7357" x2="345.0823" y2="263.543" gradientTransform="matrix(0.9821 -0.1886 -0.1886 -0.9821 85.7314 553.3947)">
				<stop  offset="0" style="stop-color:#222652"/>
				<stop  offset="1" style="stop-color:#3461AB"/>
			</linearGradient>
			<path class="st29" d="M403.6,225.1c0,0,5.7-0.7,0.7-11.2l-16.8,3.2c0,0-3.2,6.6,4.4,10.2L403.6,225.1z"/>
			
				<linearGradient id="SVGID_27_" gradientUnits="userSpaceOnUse" x1="364.4221" y1="278.5668" x2="342.9676" y2="274.3746" gradientTransform="matrix(0.9821 -0.1886 -0.1886 -0.9821 85.7314 553.3947)">
				<stop  offset="0" style="stop-color:#222652"/>
				<stop  offset="1" style="stop-color:#3461AB"/>
			</linearGradient>
			<path class="st30" d="M365.3,211.2c-1.8-1.5-1.9-7.8,5.2-4.2c3.2,1.6,21,9.7,22.7,10.6c1.7,0.8,2.4,2.4,2.4,3.4
				c0,4.9-5.1,6.6-11.4,2.8C380.1,221.4,369,214.3,365.3,211.2z"/>
			
				<linearGradient id="SVGID_28_" gradientUnits="userSpaceOnUse" x1="290.9709" y1="321.4609" x2="302.4034" y2="333.7866" gradientTransform="matrix(0.6446 -0.7646 -0.7646 -0.6446 432.5646 636.3609)">
				<stop  offset="0" style="stop-color:#222652"/>
				<stop  offset="1" style="stop-color:#3461AB"/>
			</linearGradient>
			<path class="st31" d="M374.4,238.7c-2-5.6,3.5-7.2,5.8-3.3c3.2,5.6,4.6,24.4,4.9,28.1c0,0.5-0.2,0.4-0.5,0.4
				c-0.8-0.2-1.5-0.3-1.8-0.1c-0.5,0.3-1,0.9-1,0.9C380.6,259.7,376.3,244.1,374.4,238.7z"/>
			
				<linearGradient id="SVGID_29_" gradientUnits="userSpaceOnUse" x1="372.6521" y1="274.5911" x2="384.0849" y2="286.9172" gradientTransform="matrix(0.9821 -0.1886 -0.1886 -0.9821 85.7314 553.3947)">
				<stop  offset="0" style="stop-color:#222652"/>
				<stop  offset="1" style="stop-color:#3461AB"/>
			</linearGradient>
			<path class="st32" d="M394.4,218.5c6.4-3.3,12.4-1.6,11.9,3.2c-0.2,2-1.8,3.4-3.4,4.4c-1.6,0.9-19.1,9.7-22.2,11.5
				c-6.9,4-7.3-2.4-5.5-3.8C379.7,230.1,390.9,220.3,394.4,218.5z"/>
			<path class="st21" d="M396.7,180.3c-0.9,0.9-1.2,2-0.7,2.5s1.6,0.1,2.4-0.8c0.9-0.9,1.2-2,0.7-2.5S397.6,179.3,396.7,180.3z"/>
		</g>
		<g>
			<g>
				<defs>
					<path id="SVGID_30_" d="M404.3,213.9l-3.9-7.9c0-1.8-0.1-3.7,0-5.5c0.2-0.4,0.4-0.8,0.6-1.3c1.6,2.9,2.7,5,3.3,6
						c0.1,0.1,0.2,0.2,0.2,0.3c0,0,0,0.1,0.1,0.1c1.4,2.3,9.4,12.2,11,13.9c0.1,0.5,0.6,0.9,1.4,0.8c1.6-0.3,2.5-0.2,3-0.7
						c0.6-0.6-0.8-1.3-1.4-1.3c-0.2,0-0.6,0-1,0c-0.5-0.8-1.9-1.9-3.2-4.4c-2.6-4.9-3.2-6.3-5.8-9.4c-0.2-0.2-0.4-0.4-0.6-0.6
						c-0.3-1.6-1.2-4.3-3.5-9.1c-0.7-1.5-1.3-2.6-1.7-3.4c0.3-5.2-0.8-10.5-1.9-15.5c-1.2-5.3-11.5-11.8-15.1,0.5
						c-2.6,8.7-7.6,7.2-10.1,14c-2.9-1.8-7.9-4.5-9.6-5.6c-0.4-0.7-1-1.5-1.2-1.8c-0.7-0.9-2.6-2.4-2.7-1.5
						c-0.1,1.2,0.2,2.6,0.9,3.2c0.1,0.1,0.3,0.3,0.5,0.4c-0.5-0.1-0.9-0.1-0.7,0.1c0.4,0.4,1.1,0.9,1.5,1c0.1,0,0.3,0.1,0.4,0.1
						c0.4,0.5,1.4,1,3.1,2.7c3.1,3,4.2,3.8,6.9,5.3v0.1c-0.8,5.3,6.1,13,13,14.3c0.3,2.4,0,4.6-0.2,6.4c-6-2.8-14.8-6.8-16.9-7.9
						c-1.4-0.7-2.6-1-3.5-1.1c-0.4-0.1-0.8,0-1.2,0.1c-0.6,0.2-1,0.6-1.3,1.1c-0.4,0.6-0.6,1.3-0.8,2.3c-0.7,5.7-0.7,11.2-2.7,22.2
						l0,0l-0.1,0.1c-0.1,0.4-0.9,1.4-2,2.3c-1.2,0.8-3.8,1.6-2.2,1.8c1.6,0.2,3.3-0.4,4.1-0.7c0.9-0.3,1.7-0.5,2.7-0.7
						s1.3-0.3,1.1-1l0,0c1.3-6.5,4.2-13,5-18.9c4.8,3.3,11.4,7.5,14.4,9.3c0.6,0.4,1.2,0.7,1.8,0.9c-4,3.3-8.4,7.1-10.8,9l-0.1,0.1
						c-1,0.8-1.5,2.5-0.7,4.8c1.9,5.3,6.1,20.6,7.3,25.8c0,0.2-0.1,0.5,0,0.7c0.2,0.4,0.2,1.7-0.1,3c-0.4,1.4-1.9,3.6-0.6,2.8
						c1.4-0.9,2.3-2.4,2.7-3.2c0.5-0.8,1-1.5,1.7-2.3c0.8-1,0.8-1.2-0.3-1.9v-0.1c-0.3-3.4-1.5-19.1-4-26.2
						c3.8-2.1,20.2-10.4,21.8-11.3c0.8-0.5,1.6-1.1,2.3-1.8C406.4,223.2,407.5,220.5,404.3,213.9"/>
				</defs>
				<clipPath id="SVGID_31_">
					<use xlink:href="#SVGID_30_"  style="overflow:visible;"/>
				</clipPath>
				
					<linearGradient id="SVGID_32_" gradientUnits="userSpaceOnUse" x1="-53.9507" y1="90.1999" x2="42.0536" y2="31.2169" gradientTransform="matrix(-0.5115 -0.8102 -0.4686 0.5423 435.8753 192.5615)">
					<stop  offset="0" style="stop-color:#2A4B9B"/>
					<stop  offset="1" style="stop-color:#9E1460"/>
				</linearGradient>
				<path class="st33" d="M396.1,177.1c6.3-6,23.8-0.7,27.4,7.9c3.7,8.8-2.5,14,4.8,25.9c5.8,9.4,2.2,21,2.1,29.8
					c0,9.6,5.3,13.6,4.9,22.2c-1,19.9,18.3,29.1,5.5,35c-13.1,6.1-14.1-2.6-29-0.7c-13,1.7-18.1-31.2-18.5-44
					c-0.4-13.5,8.4-19,3.2-32.8c-3.1-8.2,0.4-10.1-0.3-22.6C395.9,192.1,388.7,184.2,396.1,177.1z"/>
			</g>
		</g>
	</g>
</g>
<linearGradient id="SVGID_33_" gradientUnits="userSpaceOnUse" x1="294.12" y1="269.64" x2="294.12" y2="269.64">
	<stop  offset="0" style="stop-color:#36277C"/>
	<stop  offset="1" style="stop-color:#47A9E0"/>
</linearGradient>
<path class="st34" d="M294.1,269.6"/>
<path class="st3" d="M202.4,372.1"/>
<linearGradient id="SVGID_34_" gradientUnits="userSpaceOnUse" x1="237.96" y1="217.8" x2="237.96" y2="217.8">
	<stop  offset="0" style="stop-color:#36277C"/>
	<stop  offset="1" style="stop-color:#47A9E0"/>
</linearGradient>
<path class="st35" d="M238,217.8"/>
</svg>
